# xmcd
#
# Track frame offsets:
#	150
#	12682
#	29197
#	41958
#	49388
#	61283
#	72819
#	78009
#	89831
#	99126
#	120380
#	123893
#	137420
#	143067
#	152417
#	170973
#	175913
#	188738
#	204561
#
# Disc length: 2903 seconds
#
# Revision: 1
# Processed by: cddbd v1.5.2PL0 Copyright (c) Steve Scherf et al.
# Submitted via: audiograbber 1.83.01
#
DISCID=0c0b5513
DTITLE=John Denver - Christmas in Concert
DYEAR=1900
DGENRE=Christmas
TTITLE0=Christmas for Cowboys
TTITLE1=Christmas Like a Lullaby
TTITLE2=The Marvelous Toy
TTITLE3=Good Evening Talk
TTITLE4=A Baby Just Like You
TTITLE5=Nosed Reindeer
TTITLE6=Introduction of Choir
TTITLE7=Away in a Manger
TTITLE8=Jingle Bells
TTITLE9=What Child Is This
TTITLE10=Intro to Please Daddy Don't Get Drunk This Christmas
TTITLE11=Please Daddy Don't Get Drunk This Christmas
TTITLE12=Intro to Alfie the Christmas Tree
TTITLE13=Alfie the Christmas Tree
TTITLE14=Silent Night
TTITLE15=Living Legend Story
TTITLE16=Christmas Eve 1913
TTITLE17=Little Drummer Boy
TTITLE18=O Holy Night
EXTD=
EXTT0=
EXTT1=
EXTT2=
EXTT3=
EXTT4=
EXTT5=
EXTT6=
EXTT7=
EXTT8=
EXTT9=
EXTT10=
EXTT11=
EXTT12=
EXTT13=
EXTT14=
EXTT15=
EXTT16=
EXTT17=
EXTT18=
PLAYORDER=
